<svg version="1.2" xmlns="http://www.w3.org/2000/svg" viewBox="0 0 500 500" width="500" height="500">
	<style>
		.s0 { opacity: .99;fill: #5f9828 } 
		.s1 { opacity: .99;fill: #1871c1 } 
		.s2 { opacity: .99;fill: #164a8d } 
		.s3 { opacity: .99;fill: #bfcee5 } 
		.s4 { opacity: .99;fill: #43872e } 
		.s5 { opacity: .99;fill: #1b9167 } 
		.s6 { opacity: .99;fill: #ce851e } 
		.s7 { opacity: .99;fill: #c12240 } 
		.s8 { opacity: .81;fill: #1c5b99 } 
		.s9 { opacity: .35;fill: #1f62a1 } 
		.s10 { opacity: .91;fill: #283d62 } 
		.s11 { opacity: .76;fill: #5b7c39 } 
		.s12 { opacity: .56;fill: #254261 } 
		.s13 { opacity: .27;fill: #619440 } 
		.s14 { opacity: .35;fill: #c25f47 } 
		.s15 { opacity: .58;fill: #78952e } 
		.s16 { opacity: .27;fill: #355566 } 
		.s17 { opacity: .65;fill: #b6c5e0 } 
		.s18 { opacity: .2;fill: #9ca9cd } 
	</style>
	<g id="Background">
		<path id="Path 0" fill-rule="evenodd" class="s0" d="m225.5 31.21c4.37-0.06 3.36 0.37-8 3.41-7.15 1.92-18.18 5.53-24.5 8.03-6.32 2.49-15.66 6.75-20.75 9.44-5.09 2.7-13.64 7.8-19 11.34-5.36 3.54-13.35 9.33-17.75 12.86-4.4 3.54-12.5 10.71-18 15.92-5.5 5.22-13.21 13.27-17.12 17.89-3.92 4.62-10.02 12.45-13.55 17.4-3.53 4.95-8.38 12.15-10.78 16-2.4 3.85-6.72 11.72-9.61 17.5-2.88 5.78-6.89 14.55-8.89 19.5-2.01 4.95-3.4 9.11-3.1 9.25 0.3 0.14 3.31-3.91 6.69-9 3.38-5.09 8.28-11.95 10.89-15.25 2.61-3.3 8.73-9.85 13.61-14.55 4.87-4.7 12.24-10.82 16.36-13.61 4.13-2.78 10.2-6.42 13.5-8.07 3.3-1.66 9.6-4.21 14-5.66 4.4-1.46 9.35-2.68 11-2.7 1.65-0.03 3.9-0.44 5-0.91 1.91-0.82 1.9-0.86-0.25-0.93-1.73-0.05-2.08-0.46-1.5-1.74 0.62-1.38 0.35-1.56-1.5-1-1.39 0.41-2.53 0.19-2.99-0.58q-0.73-1.24 0.5-0.5c0.7 0.42 1.4 0.21 1.6-0.5 0.2-0.69 3.46-2.82 7.25-4.73 5.74-2.9 8.23-3.55 14.89-3.89 6.11-0.32 9.66 0.08 15 1.66 3.85 1.14 9.7 3.87 13 6.05 3.3 2.19 7.57 5.9 9.5 8.26 1.93 2.35 4.28 5.43 5.24 6.84 0.96 1.41 1.76 2.78 1.77 3.06 0.02 0.28-1.78 0.84-3.99 1.25-2.21 0.41-9.53 2.83-16.27 5.36-8.11 3.05-14.45 4.79-18.75 5.12-4.3 0.34-8.62-0.03-12.75-1.11-3.44-0.89-7.94-2.48-10-3.54-2.06-1.06-4.57-2.52-5.57-3.25-1.41-1.03-1.69-2.12-0.6-8.33l24.42-4.42-8.5 0.39c-5.19 0.23-11.62 1.33-16.5 2.83-4.4 1.36-10.93 3.66-14.5 5.13-3.58 1.46-11 5.65-16.5 9.29-6.33 4.2-13.86 10.51-20.52 17.21-5.79 5.81-13.04 14.17-16.12 18.57-3.07 4.4-7.42 11.38-9.67 15.5-2.25 4.13-5.85 11.78-8.01 17-2.15 5.22-4.86 12.65-6 16.5-1.15 3.85-2.5 8.57-2.99 10.5-0.56 2.16-1.43 3.39-2.3 3.21-0.76-0.15-2.18-0.04-3.14 0.25-0.96 0.3-1.75 1.22-1.75 2.04q0 1.5-2 1c-1.1-0.28-3.01 0.03-6.5 1.85l0.71-10.92c0.39-6.01 1.62-15.65 2.73-21.43 1.11-5.78 3.41-15.22 5.12-21 1.7-5.78 4.93-15 7.18-20.5 2.24-5.5 5.85-13.37 8.03-17.5 2.18-4.12 6.45-11.55 9.5-16.5 3.05-4.95 8.57-13.05 12.27-18 3.69-4.95 10.99-13.72 16.21-19.5 5.23-5.78 12.34-12.97 15.79-16 3.46-3.03 8.81-7.53 11.88-10 3.08-2.47 8.96-6.74 13.09-9.47 4.12-2.73 13.34-7.94 20.49-11.57 7.15-3.63 16.82-7.98 21.5-9.68 4.68-1.69 12.78-4.2 18-5.58 5.22-1.37 12.65-3 16.5-3.6 3.85-0.61 8.13-1.27 9.5-1.47 1.38-0.2 4.75-0.39 7.5-0.42zm-41.75 32.88c2.34-0.05 4.25 0.36 4.25 0.91 0 0.55-0.45 1.22-1 1.5-0.55 0.28-3.39 4.21-6.31 8.75-2.91 4.54-7.08 9.68-9.25 11.42-2.17 1.75-6.87 4.5-10.44 6.12-3.57 1.62-8.19 3.23-10.25 3.58-2.26 0.38-3.75 0.23-3.75-0.37 0-0.55 2.14-3.26 4.75-6.02 2.61-2.75 4.53-5.21 4.25-5.46-0.28-0.25-2.43 1.45-4.8 3.77-2.5 2.45-4.26 3.58-4.22 2.71 0.03-0.83 0.95-3.41 2.04-5.75 1.09-2.34 3.96-6.39 6.37-9 2.41-2.61 6.58-5.85 9.25-7.2 2.67-1.34 7.11-2.99 9.86-3.66 2.75-0.67 6.91-1.26 9.25-1.3zm-58.25 84.61c2.2 0.3 5.8 1.39 8 2.42 2.2 1.04 5.35 3.04 7 4.45 1.65 1.42 2.44 2.32 1.75 2-0.69-0.31-1.25-0.12-1.25 0.43 0 0.55-1.01 1.3-2.25 1.67-1.24 0.37-4.28 1.97-6.75 3.56-3.49 2.25-6.07 3.02-11.5 3.43-5.16 0.4-8.18 0.1-11.5-1.14-2.47-0.92-5.85-2-10.5-3.14l2.5-1.34c1.38-0.73 4.53-1.9 7-2.59 2.47-0.69 6.3-1.54 8.5-1.9 2.61-0.41 3.65-0.97 3-1.6-0.64-0.63-2.95-0.57-6.5 0.16-3.03 0.62-6.4 1.59-7.5 2.15-1.66 0.84-1.57 0.54 0.5-1.72 1.38-1.5 3.74-3.36 5.25-4.14 1.51-0.77 4.44-1.81 6.5-2.32 2.06-0.51 5.55-0.68 7.75-0.38zm-84.5 123.3l0.02 3.75c0.01 2.06 0.68 8.7 1.5 14.75 0.81 6.05 1.78 11.9 2.15 13 0.37 1.1-1.56-0.48-4.3-3.5-4.66-5.14-5.09-6.09-6.68-14.5-0.93-4.95-1.87-10.12-2.08-11.5-0.37-2.41-0.2-2.49 9.39-2zm433 29.02c0.27-0.06 1.06 0.59 1.75 1.44 1.01 1.25 0.85 3.21-0.86 10.29-1.16 4.81-4.13 13.93-6.61 20.25-2.48 6.32-7.02 16.45-10.09 22.5-3.07 6.05-9.37 16.63-13.99 23.5-4.62 6.88-11.46 16.1-15.19 20.5-3.73 4.4-11.79 12.84-17.9 18.75-6.11 5.91-15.95 14.33-21.86 18.71-5.91 4.38-10.86 7.75-11 7.5-0.14-0.25-1.26 0.45-2.5 1.56-1.24 1.11-2.81 2.01-3.5 2-0.69-0.01-1.59 0.02-2 0.08-0.41 0.05-1.54 0.5-2.5 1-1.12 0.58-1.57 0.54-1.25-0.1 0.27-0.55 0.05-1-0.5-1-0.55 0-0.89-0.53-0.75-1.18 0.14-0.65-0.88-1.52-2.25-1.94-1.38-0.42-6.1-1.39-10.5-2.15-4.4-0.76-8.23-1-8.5-0.54-0.27 0.46-2.98 0.31-6-0.32-4.45-0.93-5.12-1.32-3.5-2.01 1.24-0.53 0.29-0.6-2.5-0.19-3.32 0.49-4.3 0.36-3.75-0.5 0.41-0.64 0.3-1.17-0.25-1.17-0.55 0-1.23 0.45-1.5 1-0.27 0.55-1.96 0.74-3.75 0.42-1.79-0.32-5.27-0.7-7.75-0.84-2.48-0.14-6.98-0.82-10-1.5-3.02-0.68-9.66-1.77-14.74-2.41-5.45-0.69-9.35-0.8-9.5-0.26-0.15 0.53-2.26 0.43-5.01-0.25-2.61-0.64-5.31-0.85-6-0.48-0.69 0.38-2.49 0.83-4 1-1.71 0.2-2.75-0.15-2.74-0.93 0.01-0.69 1.92-4.71 4.25-8.93 2.33-4.23 6.38-10.42 8.99-13.75 2.61-3.34 7.9-8.66 11.75-11.82 3.85-3.16 10.71-7.9 15.25-10.53 4.54-2.63 12.41-6.11 17.5-7.75 5.09-1.63 15.89-4.29 24-5.91 8.11-1.61 18.12-4.14 22.25-5.62 4.12-1.48 10.2-4.04 13.5-5.68 3.3-1.65 10.27-5.94 15.5-9.53 5.23-3.59 9.95-6.72 10.5-6.95 0.55-0.23 1.79 0.28 2.75 1.15 0.96 0.86 1.74 2.81 1.73 4.32-0.01 1.51-0.91 4.66-2 7-1.09 2.34-3.89 6.34-6.23 8.89-2.34 2.55-8.07 7.19-12.75 10.32-4.68 3.12-14.35 8.98-21.5 13.01-7.15 4.04-13.8 8.06-14.78 8.94-0.98 0.87-1.77 1.93-1.75 2.34 0.02 0.41 2.84 0.76 6.28 0.76 3.44 0.01 9.62-0.84 13.75-1.88 4.12-1.04 11.1-3.69 15.5-5.88 4.4-2.2 11.6-6.69 16-9.98 4.4-3.3 10.87-9.09 14.37-12.88 3.51-3.79 9.12-10.49 12.48-14.89 3.36-4.4 11.9-17 18.98-28 7.09-11 14.48-21.76 16.42-23.92 1.95-2.15 4.49-4.26 5.65-4.68 1.15-0.43 2.33-0.82 2.6-0.88z"/>
		<path id="Path 1" class="s1" d="m248.5 42.52c-4.95 0.8-9.68 1.63-10.5 1.85-0.82 0.22 7.05 0.45 17.5 0.51 10.45 0.06 21.7 0.57 25 1.13 3.3 0.57 9.82 1.75 14.5 2.64 4.68 0.89 13.68 3.29 20 5.33 6.32 2.05 17.13 6.41 24 9.69 6.88 3.29 16.32 8.45 21 11.48 4.68 3.03 11.88 8.24 16 11.57 4.13 3.33 12.02 10.72 17.53 16.42 5.52 5.7 12.55 13.73 15.63 17.86 3.08 4.12 7.94 11.1 10.81 15.5 2.87 4.4 8.47 14.53 12.43 22.5 3.96 7.97 8.68 18.55 10.48 23.5 1.8 4.95 4.61 14.18 6.23 20.5 1.63 6.32 3.84 16.68 4.91 23 1.07 6.32 2.4 17.35 2.95 24.5 0.61 7.89 0.66 17.71 0.15 25-0.47 6.6-0.69 12.34-0.49 12.75 0.2 0.41 0 1.31-0.45 2-0.46 0.69-0.87 2.15-0.93 3.25-0.06 1.1-0.32 3.12-0.58 4.5-0.26 1.37-0.74 3.74-1.07 5.25-0.45 2.04-0.21 2.75 0.9 2.75 0.82 0 2.61-1.91 3.98-4.25 1.5-2.58 3.43-8.98 4.91-16.25 1.33-6.6 2.97-16.05 3.64-21 0.79-5.82 1.03-15.37 0.67-27-0.42-13.85-1.13-20.77-3.09-30-1.4-6.6-4.18-17.18-6.19-23.5-2.02-6.32-5.67-16.22-8.13-22-2.47-5.78-6.75-14.55-9.53-19.5-2.78-4.95-7.78-13.05-11.11-18-3.34-4.95-8.51-11.93-11.5-15.5-2.98-3.58-8.85-10.02-13.04-14.33-4.18-4.3-10.99-10.64-15.11-14.08-4.13-3.45-11.1-8.67-15.5-11.61-4.4-2.95-12.95-7.73-19-10.63-6.05-2.9-15.73-6.83-21.5-8.72-5.77-1.9-15.45-4.44-21.5-5.65-8.84-1.78-15.33-2.28-33-2.56-15.91-0.25-24.49 0.05-31 1.1zm-83.26 215.73c-1.77 1.24-2.89 2.6-2.48 3.03 0.41 0.43 0.18 0.76-0.51 0.75-0.69-0.02-1.93 1.54-2.75 3.47-0.82 1.93-1.5 4.85-1.5 6.5 0 1.67 0.44 2.78 1 2.5 0.57-0.29 0.79 0.36 0.5 1.5-0.34 1.34 0.57 3.11 2.75 5.37 1.79 1.86 4.82 3.84 6.75 4.4 2.22 0.66 4.96 0.7 7.5 0.13 2.2-0.5 4.68-1.45 5.5-2.11 0.82-0.66 2.28-2.12 3.24-3.25 0.96-1.12 2.2-3.73 2.75-5.79q1.01-3.75 0.01-7.75c-0.55-2.2-2.01-5.06-3.25-6.35-1.24-1.29-3.26-2.86-4.5-3.5-1.24-0.63-4.4-1.15-7.02-1.15-3.33 0-5.75 0.68-7.99 2.25zm41.76 21.88c-5.22 3.35-12.87 7.69-17 9.66-5.51 2.63-9.23 3.7-14 4.02-3.57 0.23-8.97-0.07-12-0.68-3.38-0.68-8.68-3.03-13.75-6.12-4.54-2.75-8.26-4.67-8.28-4.26-0.02 0.41-0.47-0.04-1-1-0.53-0.96-1.87-2.2-2.97-2.75-1.6-0.8-1.9-0.7-1.5 0.5 0.28 0.82 0.84 1.5 1.25 1.5 0.41 0 0.82 0.56 0.91 1.25 0.09 0.69 2.41 6.2 5.16 12.25 3.98 8.76 5.64 14.15 8.14 26.5 1.72 8.52 4.3 19.1 5.73 23.5 1.43 4.4 3.66 10.36 4.96 13.25 1.82 4.06 2.97 5.38 5.1 5.85 1.51 0.32 6.23 1.56 10.49 2.75 4.26 1.18 7.96 1.92 8.23 1.65 0.27-0.27 0-3.2-0.6-6.5-0.63-3.49-0.87-11.43-0.56-19 0.33-7.88 1.2-15.17 2.22-18.5 1.56-5.08 1.57-5.75 0.08-8.75-0.89-1.79-1.61-4.15-1.61-5.25 0-1.1 0.68-2.23 1.5-2.5 0.82-0.27 2.46 0.06 3.63 0.75 1.77 1.04 2.22 1 2.68-0.25 0.3-0.82 4.06-6.68 8.37-13 4.31-6.32 9.41-13.64 11.35-16.25 1.93-2.61 3.39-4.74 3.24-4.72-0.15 0.02-4.55 2.76-9.77 6.1zm-183.88 23.62c-0.55 1.02-0.6 3.62-0.12 6.25 0.45 2.48 1.59 7.2 2.54 10.5 0.94 3.3 3.3 10.05 5.24 15 1.94 4.95 4.24 9.8 5.12 10.78 0.88 0.98 1.26 1.77 0.85 1.75-0.41-0.02 1.35 3.91 3.91 8.72 2.57 4.81 6.92 12.12 9.68 16.25 2.75 4.12 7.74 11.1 11.07 15.5 3.34 4.4 11.25 13.21 17.58 19.58 6.33 6.36 15.34 14.58 20.01 18.25 4.67 3.67 8.95 7.05 9.5 7.51 0.55 0.46 2.01 1.13 3.25 1.5 1.24 0.36 2.25 1.11 2.25 1.66 0 0.55 0.9 1.23 2 1.5 1.1 0.27 2.34-0.06 2.75-0.74 0.55-0.91 0.36-0.98-0.74-0.25-1.1 0.73-1.3 0.66-0.75-0.26 0.58-0.98 1.23-0.92 2.99 0.26 1.24 0.84 3.04 1.29 4 1 0.96-0.28 1.74-0.85 1.74-1.26-0.01-0.41 2.13-1.25 4.75-1.87 2.62-0.61 6.79-1.2 9.26-1.3 2.47-0.11 4.95-0.62 5.5-1.13 0.55-0.52 10.45-1.07 22-1.22 17.5-0.23 22.08 0.01 27.5 1.47 3.57 0.97 10.22 2.1 14.76 2.53 4.54 0.42 8.25 1.11 8.25 1.52-0.01 0.41 1 0.45 2.24 0.08 1.24-0.37 3.26-0.6 4.5-0.5 1.64 0.12 2.25-0.37 2.25-1.83 0-1.21 0.69-2.03 1.75-2.07 1.5-0.06 1.46-0.2-0.25-0.93-1.71-0.73-1.75-0.87-0.25-0.93 0.96-0.04 1.75-0.52 1.75-1.07 0-0.55-0.56-1.19-1.25-1.42-0.69-0.23-0.46-0.46 0.5-0.5 1.04-0.05 1.74 0.63 1.72 1.67-0.02 0.96 0.77 2.54 1.75 3.5 0.98 0.97 2.13 1.42 2.56 1 0.43-0.41 0.76-1.09 0.75-1.5-0.02-0.41-0.59-0.42-1.28-0.01q-1.24 0.73-0.5-0.5c0.41-0.68 0.07-2.81-0.75-4.74-0.82-1.93-2.2-3.84-3.06-4.25-0.85-0.41-1.3-1.31-1-2 0.31-0.69-1.13-3.72-3.19-6.74-2.06-3.01-6.22-8.02-9.25-11.12-3.03-3.1-8.65-7.77-12.5-10.37-3.85-2.61-9.36-5.93-12.25-7.38-2.89-1.45-9.19-3.96-14-5.57-4.81-1.6-14.37-4.07-21.25-5.47-6.87-1.4-15.43-3.5-19-4.66-3.57-1.16-10.55-4.02-15.5-6.36-4.95-2.35-12.6-6.7-17-9.69-4.4-2.98-9.24-5.53-10.75-5.66-2.27-0.19-2.86 0.25-3.36 2.52-0.36 1.65 0.11 4.55 1.18 7.25 0.98 2.48 4.07 6.9 6.86 9.82 2.79 2.93 8.22 7.49 12.07 10.13 3.85 2.64 10.83 6.71 15.5 9.04 4.68 2.34 12.21 6.67 16.75 9.63 4.54 2.96 8.03 5.83 7.75 6.38-0.28 0.55-1.96 1-3.75 1.01-1.79 0.01-5.72-0.45-8.75-1.01-3.03-0.57-8.65-2.02-12.5-3.24-3.85-1.21-10.83-4.16-15.5-6.55-4.67-2.4-11.42-6.46-15-9.02-3.58-2.57-9.59-7.6-13.37-11.18-3.78-3.58-9.93-10.11-13.67-14.51-3.74-4.4-11.45-15.04-17.13-23.65-5.68-8.61-11.91-18.2-13.83-21.32-1.92-3.12-4.85-7.01-6.5-8.65-1.65-1.63-4-2.95-5.22-2.92-1.22 0.02-2.65 0.83-3.16 1.79z"/>
		<path id="Path 2" class="s2" d="m223.37 117.2c-0.4 0.66-0.76 2.26-0.8 3.55-0.06 1.89 0.32 2.24 1.93 1.77 1.81-0.52 1.86-0.41 0.53 1.2-0.8 0.98-1.03 1.48-0.5 1.11 0.53-0.37 2.43-0.26 4.22 0.25 2.46 0.7 3.17 0.62 2.91-0.33-0.19-0.69-1.42-1.16-2.75-1.04-1.32 0.11-2.08-0.12-1.69-0.5 0.4-0.39-0.15-1.84-1.22-3.21-1.07-1.38-1.66-2.84-1.31-3.25 0.36-0.41 0.37-0.75 0.03-0.75-0.34 0-0.95 0.54-1.35 1.2zm-4.82 51.47c-1.47 2.09-2.65 4.14-2.61 4.56 0.03 0.42-1.59 3.13-3.61 6.02-2.02 2.89-4.6 6.58-5.75 8.21-1.14 1.62-3.4 4.55-5.02 6.5-1.61 1.95-7.29 7.82-12.6 13.04-5.32 5.22-13.22 12.05-17.57 15.16-4.34 3.11-12.17 8.13-17.39 11.15-5.22 3.02-13.1 7.08-17.5 9.02-4.4 1.94-11.15 4.64-15 6-3.85 1.36-10.15 3.24-14 4.18-3.85 0.93-7.22 1.85-7.5 2.04-0.28 0.18 0.09 2.73 0.82 5.64 0.88 3.53 1.13 8.32 0.73 14.31-0.32 4.95-1.27 11.93-2.1 15.5-0.84 3.57-2.4 8.86-3.48 11.75-1.09 2.89-1.97 5.93-1.97 6.75 0 0.82 0.67 1.5 1.5 1.5 0.82 0 2.55-1.69 3.82-3.75 1.28-2.06 3.93-7.8 5.9-12.75 1.96-4.95 4.06-10.57 4.68-12.5 0.61-1.93 1.7-6.65 2.42-10.5l1.3-7c13.08-2.73 19.58-4.48 22.88-5.65 3.3-1.17 9.82-3.78 14.5-5.8 4.68-2.01 14.52-7.24 21.88-11.61 7.36-4.37 17.93-11.58 23.5-16.04 5.57-4.45 13.21-11.43 16.99-15.5l6.87-7.4c4.04 5.43 7.82 9.7 11.01 13 3.19 3.3 5.78 5.55 5.75 5-0.03-0.55-0.64-1.68-1.37-2.5-0.72-0.82-3.22-6-5.56-11.5-2.33-5.5-3.87-10.35-3.41-10.78 0.46-0.43 3.09 2.04 5.84 5.48 2.75 3.44 8.82 10.11 13.5 14.83 4.68 4.71 10.98 10.72 14 13.35 3.02 2.63 9.77 7.64 15 11.13 5.23 3.49 14.45 8.86 20.5 11.93 6.05 3.08 13.48 6.52 16.5 7.66 3.02 1.13 5.95 2.43 6.5 2.87 0.55 0.44 1.37 2.99 1.83 5.67 0.45 2.67 1.89 8.68 3.18 13.36 1.3 4.68 3.29 10.64 4.43 13.25 1.13 2.61 2.06 4.98 2.06 5.25 0 0.27 0.68 1.85 1.5 3.5 0.82 1.65 1.84 3.18 2.25 3.4 0.41 0.22 0.41-2.82-0.01-6.75-0.41-3.93-1.12-11.2-1.58-16.15-0.45-4.95-0.44-12.15 0.03-16 0.48-3.85 1.62-8.57 2.54-10.5 0.91-1.93 2.14-3.81 2.72-4.2 0.67-0.44 0.5-0.88-0.45-1.21-0.82-0.29-6.45-2.14-12.5-4.13-6.05-1.98-15.73-5.85-21.5-8.59-5.77-2.74-15.45-8.29-21.5-12.32-6.05-4.04-15.73-11.57-21.5-16.74-5.78-5.17-13.3-12.76-16.73-16.86-3.42-4.1-9.27-11.92-13-17.38-3.72-5.46-7.28-10.1-7.91-10.31-0.62-0.21-2.34 1.33-3.81 3.41zm141.95 76.9c-0.9 0.87-1.61 2.89-1.57 4.5 0.04 1.61 0.63 3.81 1.32 4.89 1.07 1.67 0.9 2.32-1.25 4.52-1.37 1.41-3.51 2.56-4.75 2.55-1.24-0.02-3.05 0.98-4.03 2.22-0.98 1.24-2.1 4.16-2.5 6.5-0.4 2.34-1.17 4.25-1.72 4.25-0.55 0-1.67 1.57-2.5 3.5-0.82 1.93-1.5 5.3-1.5 7.5 0 2.2 0.45 5.12 1 6.5 0.8 2 1.7 2.5 4.5 2.5h3.5c0.05 7.36 0.31 17.15 0.61 26.5 0.3 9.35 0.59 18.12 0.64 19.5 0.06 1.37-0.2 3.29-0.57 4.25-0.57 1.46-0.11 1.75 2.82 1.75 1.93 0 3.7-0.34 3.95-0.75 0.24-0.41-0.21-1.99-1-3.5-1.27-2.41-1.26-3.97 0.06-12.5 0.84-5.36 1.96-11.89 2.5-14.5 0.55-2.61 1.44-4.75 1.99-4.75 0.55 0 1.52 2.14 2.16 4.75 0.64 2.61 1.09 5.09 1 5.5-0.09 0.41 0.4 5.48 1.09 11.26l1.25 10.51c6.65-0.02 8.76-0.56 9.11-1.27 0.33-0.69 0.08-1.7-0.56-2.25-0.85-0.72-1.01-0.51-0.61 0.75 0.43 1.35-0.01 1.75-1.94 1.75-1.78 0-2.36-0.43-2-1.5 0.28-0.85 1.04-1.2 1.75-0.81 0.98 0.54 0.99 0.38 0.06-0.75-0.84-1.02-1.2-8.57-1.24-25.94-0.03-13.48-0.29-25.74-0.57-27.25-0.27-1.51-0.16-2.96 0.25-3.21 0.41-0.26 2.22 2.33 4.02 5.75 1.81 3.41 3.27 7.45 3.25 8.96-0.01 1.73 0.44 2.62 1.23 2.39q1.25-0.35 0.96-5.25c-0.16-2.69-0.92-6.91-1.69-9.39-0.77-2.48-2.32-8.1-3.45-12.5-1.83-7.11-2.41-8.17-5.2-9.5-1.72-0.82-3.3-1.84-3.5-2.25-0.2-0.41 0.24-1.54 1-2.5 0.75-0.96 1.64-3.88 1.98-6.49 0.58-4.5 0.47-4.8-2.37-6.25-1.64-0.83-3.62-1.51-4.41-1.51-0.78 0-2.17 0.71-3.07 1.57zm40.02 13.49c-1.39 1.07-3.02 3.63-3.64 5.69-0.62 2.06-2.16 4.87-3.44 6.25-1.3 1.4-3.38 6.23-4.75 11-1.34 4.68-2.78 11.2-3.19 14.5-0.42 3.3-1.37 7.46-2.13 9.25-0.75 1.79-1.39 4.49-1.42 6-0.02 1.72 0.77 3.31 2.11 4.25 2.13 1.48 2.14 1.58 0.54 8-1.29 5.16-1.36 6.65-0.36 7.23 0.69 0.41 2.5 0.75 4.01 0.75 1.51 0.01 2.79 0.36 2.83 0.77 0.05 0.41 0.16 1.8 0.25 3.09 0.1 1.28-0.17 2.52-0.58 2.75-0.41 0.22-0.75 0.86-0.75 1.41 0 0.55 1.01 1 2.25 0.99 1.98 0 2.25-0.51 2.25-4.25v-4.24c8.2-0.48 8.52-0.31 8.75 2.17 0.14 1.47 0.81 2.82 1.5 3q1.25 0.32 1-2.62c-0.17-2.02 0.5-3.67 2.13-5.25 2.25-2.18 2.34-2.73 1.68-10.3-0.39-4.4-1.09-11.38-1.56-15.5-0.47-4.13-0.48-7.95-0.01-8.5 0.52-0.62 1.31-0.05 2.06 1.5 0.67 1.37 1.39 3.4 1.59 4.5 0.21 1.1 0.82 2.45 1.35 3 0.54 0.55 1.19 0.77 1.45 0.5 0.26-0.27 0.02-2.3-0.55-4.5-0.57-2.2-1.67-6.25-2.45-9-0.78-2.75-1.42-6.91-1.43-9.25 0-2.34-0.72-5.71-1.59-7.5-1.13-2.33-1.26-3.53-0.48-4.25 0.6-0.55 1.11-3.02 1.12-5.5 0.02-2.48-0.55-4.99-1.27-5.59-0.71-0.61-2.07-1.37-3.02-1.7-0.99-0.34-2.82 0.24-4.25 1.35zm25.06 39.19c-0.84 1.26-1.3 3.46-1.04 5 0.38 2.28-0.06 3.01-2.54 4.25-2.73 1.36-3.2 1.34-5.15-0.25l-2.16-1.75c2.95 4.29 4.68 5.64 5.75 5.77 1.81 0.21 1.93 1 1.75 10.98-0.1 5.91 0.15 10.75 0.56 10.76 0.41 0 1.31-1.35 2-3 0.69-1.66 1.7-2.78 2.25-2.51 0.55 0.27 1 1.4 1 2.5 0 1.11 0.67 2 1.5 2 1.09 0 1.52-1.16 1.56-4.25 0.03-2.34 0.41-6.05 0.84-8.25 0.57-2.87 0.98-3.5 1.45-2.25 0.36 0.96 1.1 1.75 1.65 1.75 0.61 0 0.42-2.06-0.47-5.25-0.83-2.96-2.46-6.03-3.75-7.04-2.04-1.6-2.14-2.03-0.93-4 1.03-1.68 1.09-2.75 0.25-4.46-0.6-1.24-1.53-2.25-2.05-2.25-0.52 0-1.63 1.01-2.47 2.25zm-196.83 130.33c0.69 0.23 1.25 0.87 1.25 1.42 0 0.55-0.79 1.03-1.75 1.07-1.5 0.06-1.46 0.2 0.25 0.93 1.71 0.73 1.75 0.87 0.25 0.93-1.06 0.04-1.75 0.86-1.75 2.07 0 1.46-0.61 1.95-2.25 1.83-1.24-0.1-3.26 0.13-4.5 0.5-1.24 0.37-2.25 0.33-2.24-0.08 0-0.41-3.71-1.1-8.25-1.52-4.54-0.43-11.18-1.56-14.76-2.53-5.42-1.46-10-1.7-27.5-1.47-11.55 0.15-21.45 0.7-22 1.22-0.55 0.51-3.02 1.02-5.5 1.13-2.47 0.1-6.64 0.69-9.26 1.3-2.62 0.62-4.76 1.46-4.75 1.87 0 0.41-0.78 0.98-1.74 1.26-0.96 0.29-2.65-0.11-3.75-0.88-1.53-1.08-2.4-1.14-3.71-0.27-1.46 0.98-0.26 2.02 8.5 7.35 5.62 3.42 15.39 8.69 21.71 11.72 6.33 3.02 17.58 7.49 25 9.94 7.43 2.44 17.1 5.35 21.5 6.45 4.4 1.1 10.03 2.32 12.5 2.71 2.48 0.39 5.4 0.9 6.5 1.13 1.1 0.23 7.18 1.1 13.5 1.94 6.33 0.84 12.85 1.39 14.5 1.21l3-0.31c-0.36-15.5-0.95-22.48-1.54-25.5-0.59-3.02-2.06-8.78-3.27-12.79-1.47-4.91-2.6-7.11-3.44-6.75-0.69 0.3-1.94-0.28-2.78-1.29-0.84-1-1.51-2.58-1.5-3.5 0.02-0.96-0.71-1.64-1.72-1.59-0.96 0.04-1.19 0.27-0.5 0.5z"/>
		<path id="Path 3" class="s3" d="m236.11 155.76c-1.87 1.51-3.78 3.53-4.25 4.49-0.62 1.27 0.22 3.6 3.09 8.5 2.17 3.71 7.5 11.03 11.83 16.25 4.34 5.23 12.57 13.7 18.3 18.83 5.73 5.14 14.69 12.19 19.92 15.68 5.23 3.5 14 8.6 19.5 11.34 5.5 2.74 16.07 7.13 23.5 9.75 7.42 2.61 14.08 5.24 14.79 5.83 0.72 0.59 1.28 2.08 1.25 3.32-0.02 1.24-1.38 4.84-3.01 8-2.17 4.19-2.98 7.17-3 11-0.02 2.89 0.31 5.26 0.72 5.28 0.41 0.02 1.53-0.77 2.47-1.75 0.95-0.98 1.73-2.68 1.73-3.78 0-1.1 1.03-3.57 2.31-5.5 1.27-1.93 3.98-4.29 6.03-5.25 3.66-1.73 3.71-1.82 3.42-7-0.26-4.65-0.77-5.73-4.5-9.5-2.32-2.34-4.89-5.6-5.71-7.25-0.83-1.65-1.82-4.91-2.21-7.25-0.66-3.95-1.25-4.59-8.25-9.1-4.15-2.66-10.44-7.16-13.98-10-3.53-2.83-8.66-7.85-11.38-11.15-2.72-3.3-5.9-7.7-7.07-9.78-1.3-2.33-3.07-3.98-4.61-4.31-1.38-0.29-3.51-0.73-4.75-0.97-2.01-0.39-2.25-1.03-2.25-5.94 0-3.02-0.56-7.59-1.25-10.15-0.69-2.56-1.7-4.85-2.25-5.08-0.55-0.23-4.94 0.51-9.75 1.65q-8.75 2.08-10.5 1.16c-0.96-0.5-5.35-1.88-9.75-3.06-4.4-1.18-10.03-3.26-12.5-4.61-2.48-1.36-4.5-2.45-4.5-2.43 0 0.02-1.53 1.27-3.39 2.78zm-31.76 5.22c-1.19 0.49-4 3.62-6.25 6.96-2.26 3.33-5.11 6.74-6.35 7.57-1.24 0.83-4.05 1.49-6.25 1.48-2.2-0.01-5.67-0.58-7.72-1.26-3.1-1.02-4.17-0.98-6.37 0.27-1.46 0.82-4.62 4.54-7.03 8.25-2.41 3.71-5.55 7.31-6.98 8-2.1 1.01-3.48 0.99-7.25-0.14-2.56-0.76-5.78-1.61-7.15-1.88-2.09-0.42-3.17 0.37-6.66 4.89-2.28 2.96-5.54 6.84-7.25 8.63-1.7 1.79-3.08 4.26-3.06 5.5 0.02 1.24 0.7 3.15 1.52 4.25 0.82 1.1 1.48 2.9 1.48 4 0 1.1-1.35 4.03-2.99 6.5-1.64 2.48-3.89 5.63-5 7-1.58 1.95-1.85 3.16-1.21 5.5 0.45 1.65 1.57 3.11 2.49 3.25 0.92 0.14 6.52-2.29 12.43-5.39 5.91-3.1 12.77-6.78 15.25-8.17 2.47-1.4 8.55-5.34 13.5-8.75 4.95-3.42 14.42-11.56 21.04-18.08 6.62-6.52 14.72-15.47 18-19.88 3.28-4.41 6.86-9.7 7.96-11.76 1.55-2.9 1.75-4.14 0.9-5.48-0.61-0.96-1.96-1.83-3-1.95-1.05-0.11-2.87 0.2-4.05 0.69zm177.65 52.08c-5.23 3.88-10.56 8.04-11.86 9.25-1.29 1.2-3.65 4.1-5.25 6.44-1.59 2.34-3.23 5.61-3.64 7.27-0.7 2.82-0.56 3.02 2 3 1.51-0.01 4.32 0.66 6.25 1.48 2.45 1.05 3.81 2.47 4.55 4.75 0.59 1.81 0.77 5.68 0.41 8.75-0.56 4.82-0.37 5.75 1.52 7.5 1.18 1.1 3.02 5.04 4.09 8.75 1.46 5.12 2.33 6.69 3.59 6.5 1-0.15 3.89-4.61 7.25-11.18 4.82-9.43 6.07-11.13 9.09-12.35 2.74-1.11 4.31-1.18 7.25-0.32 2.14 0.63 4.4 2.18 5.25 3.6 0.89 1.48 2.11 2.3 3 2 0.89-0.3 1.5-1.72 1.5-3.5 0-1.65-0.92-4.24-2.03-5.75-1.12-1.51-2.04-3.65-2.04-4.75 0-1.1 0.92-3.24 2.04-4.75 1.11-1.51 2.02-3.76 2.01-5-0.01-1.24 0.65-3.15 1.47-4.25 0.82-1.1 1.52-2.68 1.56-3.5 0.04-0.82-0.5-2.06-1.22-2.75-0.71-0.68-4.67-1.73-8.79-2.33-4.13-0.6-8.11-1.62-8.85-2.26-0.78-0.67-1.13-2.22-0.84-3.66 0.28-1.37 0.81-3.4 1.19-4.5 0.56-1.65-0.04-2.31-3.41-3.75-2.25-0.96-4.65-1.75-5.34-1.75-0.69 0-5.52 3.17-10.75 7.06zm0.5 128.13c-2.75 0.51-8.67 1.23-13.15 1.62-5.45 0.46-8.85 1.27-10.28 2.44-1.18 0.96-2.93 1.75-3.9 1.75-0.98 0-2.34 0.56-3.04 1.25-0.7 0.69-1.19 0.8-1.08 0.25 0.1-0.55 0.13-1.56 0.07-2.25-0.07-0.69-0.8-1.25-1.62-1.25-0.83 0-1.5 0.45-1.5 1 0 0.55 0.56 1.18 1.25 1.4 0.69 0.22 0.28 0.33-0.91 0.25-1.19-0.08-1.97-0.49-1.75-0.9 0.23-0.41-0.19-0.75-0.92-0.75-0.74 0-1.68 0.34-2.09 0.75-0.41 0.41-1.73 0.8-2.92 0.87-1.19 0.06-5.09 0.87-8.66 1.79-3.58 0.92-7.18 1.95-8 2.28-0.83 0.34-2.29 0.77-3.25 0.96-0.96 0.19-5.24 1.74-9.5 3.44-4.26 1.7-10.45 4.42-13.75 6.03-3.3 1.62-7.01 4.17-8.25 5.66-1.23 1.5-2.24 3.51-2.25 4.47 0 0.96 0.45 1.75 1 1.75 0.55 0 4.94-1.97 9.75-4.38 4.81-2.41 13.7-6.35 19.75-8.75 6.05-2.4 11.31-4.82 11.69-5.37 0.39-0.55 0.94-0.77 1.24-0.5 0.29 0.27 5.6-0.99 11.8-2.81 6.2-1.81 12.62-3.53 14.27-3.81 1.65-0.29 5.92-1.18 9.5-1.98 3.57-0.81 8.62-1.74 11.22-2.07 2.6-0.33 5.07-0.93 5.5-1.33 0.43-0.39 1.68-0.59 2.78-0.45 1.1 0.15 2.56 0.09 3.25-0.14 0.69-0.22 1.25-0.86 1.25-1.41 0-0.55-0.56-0.94-1.25-0.87-0.69 0.08-3.5 0.55-6.25 1.06z"/>
		<path id="Path 4" class="s4" d="m139.71 115c-0.94 1.1-1.37 2.03-0.96 2.07 0.41 0.04-0.15 0.48-1.25 0.97-1.54 0.69-1.1 0.85 1.92 0.68 2.16-0.12 4.07-0.78 4.25-1.47 0.21-0.8-0.39-1.07-1.67-0.75-1.7 0.42-1.86 0.2-1.07-1.5 0.51-1.1 0.83-2 0.71-2-0.13 0-0.99 0.9-1.93 2zm111.08 0.75c0.25 1.51-0.35 6.58-1.32 11.25-0.98 4.68-2.17 8.95-2.64 9.5-0.48 0.55-0.86 1.34-0.85 1.75 0.01 0.41 1.48 0.64 3.26 0.5 3.08-0.24 3.28-0.5 3.97-5.25 0.4-2.75 0.97-5.56 1.26-6.25 0.29-0.69 1.65-1.25 3.03-1.25 1.38 0 2.89 0.78 3.38 1.75 0.48 0.96 0.68 3.32 0.44 5.25-0.27 2.11 0.08 4.02 0.87 4.79 0.72 0.72 2.32 1.28 3.56 1.25 1.24-0.02 2.48-0.49 2.75-1.04 0.27-0.55-0.18-1.22-1-1.5-0.88-0.29-1.64-2.04-1.84-4.25-0.18-2.06-0.62-4.42-0.96-5.25q-0.63-1.5 2.58-3.51c2.28-1.43 3.3-2.89 3.49-5 0.16-1.65-0.29-3.57-1-4.28-0.7-0.72-2.62-1.27-4.27-1.22-2.49 0.06-2.7 0.24-1.25 1.04 1.06 0.59 1.75 2.15 1.75 3.97 0 1.67-0.89 3.89-2 5-1.28 1.28-3.36 2.01-5.75 2.02-3.73 0.03-3.75 0.01-2.99-3.25 0.42-1.8 0.76-3.83 0.75-4.52 0-0.69 0.7-1.92 1.56-2.75 1.41-1.34 1.12-1.5-2.83-1.5-4.24 0-4.39 0.1-3.95 2.75zm-114.29 13.43c-1.1 0.61-2.22 1.26-2.5 1.44-0.28 0.18 0.63 1.21 2 2.28 2.49 1.94 2.5 1.94 3.15-0.23l0.65-2.17c0.16 3.49 0.65 4.5 1.2 4.5 0.55 0 0.72-0.79 0.39-1.75-0.34-0.96-0.72-2.54-0.85-3.5-0.12-0.96-0.64-1.74-1.13-1.72-0.5 0.02-1.81 0.53-2.91 1.15zm-97.45 110.5c-0.8 0.27-1.36 1.12-1.25 1.9q0.21 1.43-1.8 0.92c-1.1-0.28-3 0-4.21 0.6-2.17 1.09-2.2 1.35-1.5 14.25 0.4 7.23 0.79 13.6 0.88 14.15 0.09 0.55 2.21 0.86 4.75 0.68l4.58-0.32c1.26-14.23 2.16-21.53 2.81-25.41 1.14-6.76 1.11-7.05-0.81-7.15-1.1-0.06-2.65 0.11-3.45 0.38zm215.7 158.07c-0.41 0.69-0.42 1.81-0.01 2.5q0.73 1.24-0.5 0.5c-0.77-0.47-1.24-0.18-1.24 0.75 0 0.82-0.12 1.84-0.27 2.25-0.14 0.41-0.59 1.31-1 2-0.4 0.69-0.5 1.48-0.23 1.75 0.28 0.27 1.96-1.4 3.75-3.71 1.79-2.32 2.69-3.89 2-3.5-0.82 0.47-1.34-0.06-1.5-1.54q-0.25-2.25-1-1zm15.09 35.86c-0.34 0.4-1.68 0.84-2.98 0.97-1.3 0.14-2.9 0.29-3.57 0.34-0.66 0.04-2.12 3.12-3.23 6.83-1.12 3.71-2.71 11.02-3.54 16.25-0.83 5.23-1.51 12.54-1.52 16.25v6.75c6.2 0 8-0.34 8-0.75 0-0.41 4.39-0.82 9.75-0.9 5.36-0.09 14.7-1.13 20.75-2.32 6.05-1.19 14.6-3.07 19-4.17 4.4-1.11 12.73-3.6 18.5-5.54 5.78-1.93 16.91-6.62 24.75-10.42 7.84-3.79 14.25-7.35 14.25-7.9q0-1-2 0-2 1-1.5 0c0.28-0.55 0.05-1-0.5-1-0.55 0-0.89-0.53-0.75-1.18 0.14-0.65-0.87-1.52-2.25-1.94-1.37-0.42-6.1-1.39-10.5-2.15-4.4-0.76-8.22-1-8.5-0.54-0.27 0.46-2.97 0.31-6-0.32-4.45-0.93-5.12-1.32-3.5-2.01 1.24-0.53 0.29-0.6-2.5-0.19-3.32 0.49-4.3 0.36-3.75-0.5 0.41-0.64 0.3-1.17-0.25-1.17-0.55 0-1.22 0.45-1.5 1-0.27 0.55-1.96 0.74-3.75 0.42-1.79-0.32-5.27-0.7-7.75-0.84-2.47-0.14-6.97-0.82-10-1.5-3.02-0.68-9.66-1.77-14.74-2.41-5.08-0.64-9.26-0.78-9.28-0.29-0.02 0.48-1.27 0.62-2.76 0.32-1.5-0.3-3.86-0.83-5.24-1.17-1.39-0.35-2.8-0.31-3.14 0.08z"/>
		<path id="Path 5" class="s5" d="m270.25 275.99c-2.34 1.1-5.18 3.47-6.31 5.26-1.54 2.44-1.96 4.49-1.7 8.25 0.2 2.88 1.18 6.15 2.3 7.72 1.08 1.5 3.76 3.46 5.96 4.36 2.58 1.05 5.33 1.41 7.75 1.02 2.2-0.35 5.24-1.94 7.35-3.85 2.99-2.69 3.7-4.11 4.13-8.25 0.36-3.49 0.03-5.98-1.1-8.25-0.9-1.79-2.87-4.11-4.38-5.15-1.51-1.05-4.32-2.18-6.25-2.51-2.45-0.43-4.77-0.01-7.75 1.4zm-34.5 15.59c0.69 0.23 1.03 0.87 0.75 1.42-0.28 0.55 0.4 1.56 1.5 2.25 1.11 0.69 1.9 1.74 1.76 2.35-0.13 0.6 2.25 4.65 5.3 9 3.04 4.34 6.74 10.38 8.22 13.4 1.48 3.02 3.66 9.1 4.85 13.5 1.66 6.15 2.16 10.89 2.18 20.5 0.02 7.65-0.65 16.19-1.71 22-0.95 5.23-2.58 12.65-3.61 16.5q-1.88 7.01-0.87 8 1 1 0.44-0.75c-0.31-0.96-0.11-1.98 0.44-2.25 0.55-0.27 0.98 0.51 0.96 1.75-0.04 1.9 0.19 2.06 1.5 1 0.84-0.69 1.31-1.7 1.04-2.25-0.27-0.55-0.1-0.89 0.38-0.75 0.48 0.14 4.38-2.9 8.66-6.75 4.86-4.37 8.42-8.51 9.48-11 0.94-2.2 3.77-10.3 6.29-18 2.53-7.7 5.54-18.05 6.7-23 1.16-4.95 3.07-11.25 4.24-14 1.18-2.75 4.75-9.39 7.95-14.75 3.19-5.36 5.8-10.2 5.8-10.75 0-0.55-0.23-1-0.5-1-0.27 0-1.74 0.84-3.25 1.87-1.51 1.03-5.56 3.28-9 5-3.44 1.72-8.61 3.5-11.5 3.96-2.89 0.46-8.18 0.5-11.75 0.09-3.57-0.4-8.75-1.77-11.5-3.03-2.75-1.26-9.39-5.13-14.75-8.59-5.36-3.47-10.09-6.26-10.5-6.22-0.41 0.04-0.19 0.27 0.5 0.5z"/>
		<path id="Path 6" fill-rule="evenodd" class="s6" d="m265.25 95.1q4.76-0.1 4.75 1.15c0.01 0.81-1.84 1.34-5.25 1.5-3.74 0.19-7.55 1.4-13.25 4.22-4.4 2.18-8.34 3.75-8.75 3.5-0.41-0.26-0.12-1.26 0.66-2.22 0.77-0.96 3.59-2.85 6.25-4.19 2.66-1.33 6.19-2.75 7.84-3.14 1.65-0.39 5.14-0.76 7.75-0.82zm25.97 17.17c5.85 0.2 7.09 0.59 9.5 3 2.19 2.19 2.77 3.67 2.72 7-0.03 2.33-0.97 6.03-2.08 8.23-1.23 2.41-3.59 4.89-5.95 6.23-3.17 1.81-5.48 2.24-20.41 2.27l1.38-2.25c0.76-1.24 2.11-5.4 3.01-9.25 0.89-3.85 1.73-8.57 1.86-10.5 0.14-1.92 0.93-3.83 1.75-4.23 0.82-0.4 4.53-0.63 8.22-0.5zm-5.21 13.28c-1.41 6.77-1.74 10.27-1.04 10.95q1.02 1 4.21 0c2.02-0.63 3.92-2.29 5.18-4.5 1.09-1.93 2.2-5.97 2.47-9 0.43-4.94 0.24-5.68-1.92-7.26-1.33-0.96-2.86-1.75-3.41-1.73-0.55 0.01-1.55 0.38-2.21 0.81-0.67 0.43-2.14 5.26-3.28 10.73zm-62.76 172.49c4.02-0.03 5.27 0.46 8.14 3.21 2.2 2.11 3.65 4.65 4.14 7.25 0.61 3.26 0.31 4.79-1.64 8.3-1.53 2.75-3.65 4.86-5.89 5.86-2.36 1.05-4.64 1.33-7 0.86-1.93-0.39-4.29-1.12-5.25-1.62-0.96-0.49-2.65-2.36-3.75-4.15-1.12-1.83-1.99-5-1.99-7.25 0-2.37 0.83-5.2 2.01-6.93 1.11-1.62 3.02-3.51 4.25-4.22 1.23-0.7 4.37-1.3 6.98-1.31zm-30.5 15.92c0.41-0.03 1.31 0.53 1.99 1.25 0.69 0.71 1.02 1.63 0.75 2.04-0.27 0.41-0.15 0.54 0.26 0.28 0.41-0.27 2.32 0.81 4.25 2.39 1.93 1.57 5.75 4.04 8.5 5.49 2.75 1.44 7.25 3.11 10 3.72 3.65 0.8 6.49 0.79 10.5-0.02 3.03-0.62 8.76-2.69 12.75-4.61 3.99-1.93 7.47-3.5 7.75-3.5 0.28 0 0.51 0.34 0.52 0.75 0.01 0.41-1.85 3.23-4.13 6.25-2.28 3.02-6.05 9.55-8.38 14.5-2.32 4.95-5.08 12.37-6.11 16.5-1.35 5.38-1.89 11.1-1.89 20.25-0.01 7.01-0.23 12.74-0.51 12.72-0.28-0.01-2.32-1.7-4.55-3.75-2.22-2.04-6.49-5.28-9.5-7.19-3-1.9-5.74-3.93-6.1-4.5-0.36-0.57-0.92-5.76-1.24-11.53-0.32-5.77-1.46-14.1-2.53-18.5-1.07-4.4-2.7-9.8-3.61-12-0.91-2.2-3.06-6.93-4.79-10.5-1.73-3.57-3.49-6.61-3.91-6.75-0.42-0.14-0.77-0.93-0.77-1.75 0-0.82 0.34-1.52 0.75-1.54z"/>
		<path id="Path 7" class="s7" d="m322 140.71c-3.32 1.76-6.82 4.66-8.82 7.35-1.83 2.44-3.97 6.69-4.76 9.44-0.79 2.75-1.44 6.8-1.45 9-0.01 2.2 0.88 6.93 1.97 10.5 1.09 3.57 3.43 8.75 5.19 11.5 1.75 2.75 5.26 7.2 7.78 9.9 2.52 2.69 7.29 6.85 10.59 9.23 3.3 2.39 6.11 4.12 6.25 3.85 0.14-0.26-2.48-3.74-5.83-7.73-3.34-3.99-7.92-11.07-10.17-15.75-3.12-6.46-4.21-10.06-4.56-15-0.28-3.95 0.05-8.07 0.86-10.5 0.73-2.2 2.93-5.72 4.89-7.83q3.56-3.83 8.56-5.3c3.42-1.01 6.58-1.24 10-0.73 3.15 0.46 6.76 1.96 9.75 4.05 2.61 1.82 4.98 3.31 5.25 3.31 0.27 0 1.96-1.07 3.75-2.38 1.79-1.3 5.05-2.94 7.25-3.63 2.2-0.69 6.48-1.06 9.5-0.83 3.8 0.29 6.52 1.18 8.8 2.88 1.81 1.35 4.24 4.48 5.4 6.96 1.57 3.34 1.97 5.66 1.57 9-0.3 2.47-1.27 5.96-2.16 7.75-0.88 1.79-3.52 5.35-5.86 7.91-2.34 2.56-8.3 7.65-13.25 11.3-4.95 3.66-10.93 8.65-13.29 11.09-2.36 2.45-5.16 6.25-6.23 8.45-1.13 2.32-1.96 6.1-1.96 9q-0.02 5 2.11 8.5l2.12 3.5c2.87-7.75 5.18-11.77 6.98-13.92 1.8-2.16 8.89-8.28 15.77-13.6 6.87-5.32 14.04-11.43 15.91-13.57 1.88-2.15 4.4-5.48 5.6-7.41 1.2-1.93 3.15-6.09 4.33-9.25 1.42-3.77 2.17-8.07 2.18-12.5 0.02-5.67-0.5-7.78-3.25-13.19-1.8-3.54-4.62-7.45-6.27-8.69-1.65-1.23-4.69-2.95-6.75-3.81-2.06-0.86-6.34-1.57-9.5-1.57-4.07-0.01-7.21 0.7-10.75 2.42-2.75 1.33-6.46 4.04-8.25 6.01-1.79 1.97-3.59 3.59-4 3.6-0.41 0.01-2.1-1.38-3.75-3.09-1.65-1.71-5.02-4.28-7.5-5.72-3.36-1.95-6.28-2.71-11.5-3-6.22-0.36-7.61-0.08-12.5 2.5z"/>
		<path id="Path 8" class="s8" d="m271 40.74c3.57 0.2 8.98 0.19 12 0 3.02-0.2 0.1-0.36-6.5-0.36-6.6 0-9.07 0.17-5.5 0.36zm132 51.76c4.68 4.68 8.73 8.51 9 8.51 0.27 0-3.19-3.82-7.71-8.5-4.51-4.68-8.56-8.51-9-8.52-0.43 0 3.03 3.83 7.71 8.51zm65.38 150c0 6.6 0.17 9.07 0.36 5.5 0.2-3.57 0.19-8.97 0-12-0.2-3.03-0.36-0.1-0.36 6.5z"/>
		<path id="Path 9" class="s9" d="m250 45.74c3.57 0.19 9.65 0.19 13.5 0 3.85-0.19 0.93-0.35-6.5-0.35-7.43 0-10.57 0.16-7 0.35zm206.38 216.76c0 6.6 0.17 9.08 0.36 5.5 0.2-3.57 0.19-8.98 0-12-0.2-3.02-0.36-0.1-0.36 6.5zm-271.01 84c0 5.5 0.17 7.52 0.37 4.5 0.2-3.02 0.2-7.52-0.01-10-0.2-2.48-0.37 0-0.36 5.5z"/>
		<path id="Path 10" fill-rule="evenodd" class="s10" d="m271.47 65.11c-0.34 0.62-0.81 3.99-1.05 7.5-0.25 3.88-0.03 6.39 0.58 6.39 0.55 0 1-1.58 1-3.5 0-1.92 0.45-3.72 1-4 0.55-0.28 0.77-1.4 0.5-2.5-0.28-1.1-0.06-2.67 0.49-3.5 0.72-1.1 0.6-1.5-0.45-1.5-0.8 0-1.72 0.5-2.07 1.11zm-35.35 2.32c0.24 0.79 0.88 4.17 1.41 7.52 0.53 3.34 1.31 6.07 1.72 6.06 0.41 0 0.64-1.92 0.5-4.26-0.19-3.18 0.12-4.25 1.22-4.25 0.94 0 1.75 1.53 2.25 4.25 0.43 2.34 1.12 4.05 1.53 3.81 0.41-0.24 0.61-1.7 0.44-3.25-0.17-1.54-0.51-3.82-0.75-5.06-0.34-1.71-1.04-2.19-2.96-2-1.95 0.19-2.6-0.26-2.85-2-0.17-1.24-0.91-2.25-1.63-2.25-0.72 0-1.12 0.64-0.88 1.43zm-6.1 3.32c0.01 0.96 0.53 3.55 1.17 5.75 0.64 2.2 1.53 4.56 1.99 5.25 0.45 0.69 1.27 1.03 1.82 0.75 0.63-0.32 0.54-1.12-0.25-2.17-0.69-0.91-1.31-3.05-1.39-4.75-0.08-1.69-0.42-3.87-0.75-4.83-0.34-0.96-1.06-1.75-1.61-1.75-0.55 0-0.99 0.79-0.98 1.75zm18.42 0.5c-0.32 1.24-0.44 3.33-0.26 4.65 0.17 1.32 0.99 2.85 1.82 3.4 0.88 0.59 2.33 0.65 3.5 0.16 1.8-0.76 1.73-0.87-0.75-1.15-1.64-0.19-2.75-0.92-2.75-1.81 0-0.93 0.94-1.5 2.5-1.5 1.71 0 2.51-0.55 2.52-1.75 0.01-0.96-0.56-2.32-1.25-3.02-0.7-0.69-2.05-1.26-3-1.25-0.96 0.01-2 1.03-2.33 2.27zm9.56 2.75c0 2.75 0.45 5 1 5 0.55 0 1-1.8 1-4 0-2.2 0.45-4 1-4 0.55 0 1-0.45 1-1 0-0.55-0.9-1-2-1-1.73 0-2 0.67-2 5zm19.5-3.43c-0.9 0.87-1.61 2.89-1.57 4.5 0.04 1.61 0.74 3.6 1.57 4.43 0.82 0.83 1.95 1.5 2.5 1.5 0.55 0 1.68-1.01 2.51-2.25 0.83-1.24 1.5-3.26 1.5-4.5-0.01-1.24-0.69-2.92-1.51-3.75-0.83-0.83-1.92-1.5-2.43-1.5-0.51 0-1.67 0.71-2.57 1.57zm22.59 3.18c-0.58 2.61-1.29 5.76-1.57 7-0.29 1.24-0.18 2.25 0.23 2.26 0.41 0 1.31-1.35 2-3 1.02-2.47 1.63-2.87 3.37-2.26 1.76 0.63 2.01 1.29 1.5 4-0.35 1.82-0.18 3.47 0.38 3.75 0.55 0.28 1.67-2.41 2.5-6 0.82-3.58 1.5-6.95 1.5-7.5 0-0.55-0.45-1-1-1-0.55 0-1.11 1.01-1.25 2.25-0.19 1.67-0.9 2.25-2.75 2.25-2.18 0-2.48-0.41-2.36-3.25 0.07-1.79-0.23-3.25-0.68-3.25-0.45 0-1.29 2.14-1.87 4.75zm-13.08-1c0.01 0.96-0.33 3.22-0.75 5.02-0.55 2.37-0.41 3.27 0.49 3.25 0.69-0.01 1.25-1.14 1.25-2.52 0-1.37 0.9-3.4 2-4.5 1.1-1.1 2-2.22 2-2.5 0-0.28-1.13-0.5-2.5-0.5-1.72 0-2.5 0.55-2.49 1.75zm-65.47 1.87c-0.48 0.39-0.8 1.99-0.71 3.55 0.09 1.55 1.07 3.73 2.17 4.83 1.56 1.56 2.44 1.78 4 1 1.1-0.55 2-1.22 2-1.5 0-0.28-0.96-0.39-2.14-0.25-1.18 0.14-2.3-0.31-2.5-1-0.2-0.69 0.54-1.47 1.64-1.75 1.37-0.34 1.92-1.21 1.75-2.75-0.18-1.58-1.01-2.34-2.79-2.55-1.4-0.16-2.94 0.03-3.42 0.42zm-7.64 2.34c-1.74 0.45-2.49 1.43-2.72 3.58-0.2 1.82 0.43 3.92 1.63 5.46 1.64 2.09 2.22 2.3 3.58 1.25 1.29-1 1.74-1 2.27 0 0.37 0.71-0.38 2.02-1.75 3.04-2.23 1.66-2.26 1.8-0.41 1.8 1.1 0 2.56-0.7 3.25-1.55 1.01-1.24 0.91-2.72-0.5-7.67-0.96-3.36-2.02-6.21-2.35-6.32-0.33-0.11-1.68 0.08-3 0.41zm98.89 0.54c-0.31 0.55-1.07 2.69-1.68 4.75-0.86 2.89-0.82 3.95 0.14 4.63 0.69 0.48 2.15 1.16 3.25 1.5 1.69 0.54 2.27-0.14 3.75-4.37 1.27-3.63 1.41-4.92 0.5-4.67-0.69 0.18-1.7 1.77-2.25 3.52-0.55 1.76-1.45 3.19-2 3.19-0.55 0-1.31-0.34-1.69-0.77-0.38-0.43-0.23-1.9 0.34-3.28 0.56-1.37 0.85-3.17 0.63-4-0.23-0.84-0.66-1.06-0.99-0.5zm-120.3 3.62c-2.12 1.06-3.77 2.37-3.67 2.9 0.1 0.54 1.08 0.76 2.18 0.48 1.64-0.41 2.48 0.54 4.63 5.25 1.45 3.16 2.8 5.19 3 4.5 0.21-0.69-0.53-3.5-1.63-6.25-1.62-4.06-1.76-5.29-0.75-6.52 0.69-0.84 0.99-1.7 0.67-1.91-0.31-0.21-2.31 0.49-4.43 1.55zm9.02 2.57c-0.44 1.86-0.13 3.57 0.91 5.06 0.95 1.36 2.43 2.15 3.73 2 1.18-0.14 2.64-1.04 3.25-2.01 0.83-1.33 0.73-2.42-0.43-4.5-0.95-1.7-2.54-2.86-4.17-3.05-2.17-0.26-2.74 0.17-3.29 2.5zm2.51 1.06c-0.01-0.96 0.43-1.75 0.98-1.75 0.55 0 1.26 1.24 1.58 2.75 0.32 1.51 0.3 2.97-0.05 3.25-0.35 0.28-1.06-0.17-1.57-1-0.51-0.83-0.94-2.29-0.94-3.25zm117.44-0.13c-0.85 1.99-1.53 4.24-1.51 5 0.03 0.76 0.5 1.16 1.05 0.88 0.55-0.28 1.22-1.85 1.5-3.5 0.27-1.65 1.06-3.27 1.75-3.61 0.69-0.33 1.7-0.12 2.25 0.47q1.01 1.07-0.34 3.86c-0.74 1.53-1.16 3.45-0.94 4.28 0.26 0.95 1.13 0.05 2.35-2.41 1.06-2.15 2.38-3.72 2.93-3.5 0.55 0.23 0.91 1.08 0.81 1.91-0.11 0.83-0.47 2.85-0.8 4.5l-0.61 3c3.11-5.42 4.13-7.8 4.27-8.78 0.14-1.05-0.56-2.02-1.71-2.36-1.08-0.32-3.42-1.2-5.21-1.97-1.79-0.76-3.47-1.39-3.74-1.39-0.27 0-1.19 1.63-2.05 3.62zm17.75 4.66c0.94 0.67 1.73 1.56 1.75 1.97 0.02 0.41-1.42 0.86-3.21 1-2.54 0.2-3.3 0.74-3.5 2.5-0.18 1.6 0.48 2.54 2.25 3.25 1.37 0.55 2.61 1.01 2.75 1.03 0.14 0.02 1.09-1.67 2.12-3.75 1.03-2.08 1.6-4.57 1.25-5.53-0.35-0.98-1.61-1.74-2.87-1.72-2.04 0.03-2.09 0.15-0.54 1.25zm7.11 3.92c-0.59 0.72-1.8 2.76-2.7 4.55-0.89 1.79-1.28 3.45-0.87 3.7 0.41 0.25 1.54-1.1 2.5-3 0.96-1.9 2.42-3.45 3.25-3.45 0.82 0 1.49 0.79 1.47 1.75-0.02 0.96-0.7 2.65-1.52 3.75-0.82 1.1-1.48 2.34-1.47 2.75 0.01 0.41 0.36 0.76 0.77 0.76 0.41 0.01 1.54-1.34 2.5-3 0.96-1.65 1.75-3.68 1.75-4.51 0-0.83-0.79-1.8-1.75-2.18-0.96-0.37-2-1.07-2.3-1.54-0.31-0.48-1.04-0.29-1.63 0.42zm7.25 8.76c-1.41 2.22-2.35 4.38-2.07 4.79 0.27 0.41 0.63 0.53 0.79 0.25 0.16-0.28 1.51-2.19 3-4.25 1.49-2.06 2.29-3.99 1.78-4.29-0.51-0.29-2.08 1.28-3.5 3.5zm7.94-2.27c-1.1 0.25-1.88 1.14-1.74 1.98 0.14 0.84-0.65 2.83-1.76 4.43-1.1 1.59-1.79 3.57-1.51 4.4 0.27 0.83 0.95 1.5 1.5 1.5 0.55 0 1-1.12 1-2.5 0-1.44 0.98-3.24 2.32-4.25 1.27-0.96 2.62-2.76 3-4 0.37-1.24 0.34-2.2-0.07-2.13-0.41 0.06-1.65 0.32-2.74 0.57zm2.88 10.54c-1.53 3.84-2.68 5.34-4.25 5.52-1.17 0.14-2.14 0.7-2.14 1.25 0 0.55 0.9 1 2 1 1.1 0 2-0.45 2-1 0-0.55 0.56-1 1.25-1 0.69 0.01 3.05-1.2 5.25-2.68 2.2-1.48 3.44-2.83 2.75-3-0.69-0.18-2.42 0.47-3.85 1.43-2.53 1.7-2.58 1.7-1.85-0.25 0.42-1.1 1.25-2.58 1.86-3.29q1.09-1.29 0.09-2.27c-0.66-0.65-1.71 0.8-3.11 4.29zm-138.39 3.17c-1.38 0.73-2.84 2.06-3.25 2.96-0.52 1.14-0.31 1.56 0.7 1.39 0.79-0.14 2.03-1.08 2.75-2.09 0.71-1.01 3.1-2.2 5.3-2.64l4-0.79c-5.43-0.12-8.13 0.45-9.5 1.17zm12.28 3.79c1.22 2.12 2.27 3.73 2.34 3.58 0.06-0.15 0.4-1.85 0.75-3.77 0.6-3.34 0.49-3.5-2.34-3.58l-2.96-0.09zm-11.54 3.98c0.68 0.73 0.9 1.65 0.5 2.04-0.41 0.39 0.34 0.61 1.66 0.5 1.33-0.11 2.56 0.24 2.73 0.79 0.19 0.61-0.96 0.77-2.91 0.42-1.78-0.32-3.11-1.11-2.98-1.75q0.24-1.16-1.74-0.42c-1.89 0.72-1.9 0.84-0.25 2.57 1.01 1.05 2.49 1.58 3.49 1.25 1.2-0.39 1.52-0.19 1 0.64-0.55 0.89-0.08 1.02 1.75 0.49 1.38-0.39 2.16-0.38 1.75 0.04-0.42 0.42 0.26 1.23 1.5 1.79 1.24 0.57 2.39 1.92 2.55 3 0.17 1.09-0.5 2.78-1.5 3.76-1.1 1.09-3.25 1.77-5.55 1.75-2.91-0.03-4.2-0.65-5.78-2.79-1.12-1.51-2.01-3.42-1.98-4.25 0.03-0.95-0.28-1.13-0.84-0.5-0.49 0.55-1.12 2.58-1.41 4.5l-0.53 3.5c14.1 0.56 15.72 0.29 18.04-1.44 2.72-2.03 2.74-2.09 1.08-5.31-0.92-1.78-2.16-3.58-2.75-3.98-0.59-0.41-0.74-0.74-0.33-0.75 0.42-0.01 1.65 0.43 2.75 0.98q2 1 1.5 3c-0.27 1.1-0.05 2 0.5 2 0.55 0 0.89-1.46 0.75-3.25-0.2-2.61-0.94-3.58-3.75-4.96-1.92-0.94-5.07-2.44-7-3.33-2.42-1.13-3.12-1.21-2.25-0.29zm51.25 26.44c-1.92 1.38-5.07 3.24-7 4.12-2.36 1.09-6.49 1.64-12.68 1.7-6.6 0.05-8.7 0.35-7.5 1.07 0.93 0.55 5.96 1 11.18 0.99 7.01-0.01 10.55-0.49 13.5-1.83 3.22-1.46 3.71-2.01 2.5-2.8-1.17-0.78-1.07-0.86 0.5-0.41 1.4 0.41 2.87-0.32 4.88-2.43l2.88-3.02c-3.69 0.08-6.33 1.23-8.26 2.61zm-56.6 15.39c0.33 0.55 0.15 1-0.4 1-0.55 0-1.26 0.79-1.59 1.75-0.53 1.57-0.42 1.6 1.02 0.25 1.44-1.34 1.84-1.28 3.76 0.5l2.15 2c-2.97-5.05-4.22-6.52-4.69-6.51-0.47 0.01-0.58 0.46-0.25 1.01zm9.6 52.28c1.93 2.08 4.07 3.54 4.75 3.25 0.69-0.29 1.24 0.04 1.22 0.72-0.02 0.69 0.9 2.15 2.03 3.25 1.14 1.1 2.05 1.67 2.04 1.25-0.02-0.41-1.5-2.76-3.29-5.23-1.78-2.46-3.47-4.27-3.75-4.02-0.27 0.25 0.18 1.16 1 2.02 0.83 0.87 1.05 1.55 0.5 1.51-0.55-0.03-2.57-1.51-4.5-3.29l-3.5-3.24zm103.28 87.88c0.18 2.97-0.03 3.44-1.11 2.5-0.73-0.63 0.06 1.43 1.75 4.6 1.7 3.16 3.3 5.63 3.57 5.5 0.27-0.14-0.14-2.28-0.9-4.75-0.75-2.48-1.86-6.08-2.45-8l-1.07-3.5zm-241.27 5.59c-0.01 0.69-2.04 5.64-4.51 11-2.48 5.36-4.39 9.86-4.25 10 0.13 0.13 2.37-2.57 4.96-6 2.6-3.44 5.86-8.39 7.25-11 2.34-4.38 2.38-4.65 0.5-3.5-1.67 1.03-2.19 0.99-2.98-0.25q-0.95-1.5-0.97-0.25zm328.12 23.5c-0.11 3.72-0.62 5.08-2.39 6.26l-2.25 1.5c5.58 0.03 6.11-0.43 6.75-3.24 0.41-1.8 0.35-3.5-0.15-3.77-0.49-0.28-1.1-1.63-1.36-3-0.27-1.47-0.52-0.54-0.6 2.25zm7.09 0.89c0.23 0.63 0.5 2.43 0.6 4 0.1 1.57 0.74 2.86 1.42 2.86 0.77 0 1.32-1.55 1.42-4 0.15-3.4-0.13-4-1.85-4-1.11 0-1.83 0.51-1.59 1.14zm-22.52 3.11c0.58 1.87 0.41 2.12-1 1.5-0.94-0.41-1.93-0.3-2.21 0.25-0.29 0.59 0.64 0.84 2.25 0.61 1.52-0.22 3.03 0.12 3.38 0.75 0.4 0.74 0.84 0.52 1.25-0.61 0.43-1.21-0.15-2.21-1.88-3.25-2.4-1.44-2.47-1.42-1.79 0.75zm-33.48 1.26c0.39 0.54 0.28 1.78-0.25 2.74-0.81 1.46-0.56 1.75 1.52 1.75 1.38 0 2.51-0.56 2.52-1.25q0.03-1.22 0.87 0.25c0.66 1.14 1.02 1.2 1.49 0.25 0.34-0.69 0.17-1.25-0.38-1.25-0.55 0-1.17 0.11-1.39 0.25-0.22 0.14-1.46-0.65-2.75-1.74-1.3-1.09-2.03-1.54-1.63-1z"/>
		<path id="Path 11" class="s11" d="m228.5 31.06c1.74 0.51 4.26 0.51 6 0 2.54-0.75 2.07-0.89-3-0.88-5.07 0-5.53 0.14-3 0.88zm-76.83 56.99c-2.02 2.17-4.12 3.73-4.67 3.45-0.55-0.28-1-0.05-1 0.5 0 0.55 0.56 1.01 1.25 1.02 0.69 0 3.05-1.79 5.25-3.99 2.2-2.19 3.74-4.21 3.42-4.47-0.32-0.26-2.24 1.31-4.25 3.49zm108.83 12c-1.49 0.67-1.11 0.77 1.5 0.39 1.93-0.28 5.84 0.11 8.7 0.88 2.86 0.76 5.22 1 5.25 0.53 0.03-0.47-1.97-1.3-4.45-1.85-2.48-0.55-5.51-0.97-6.75-0.93-1.24 0.04-3.15 0.48-4.25 0.98zm-2.75 13.06c2.64 0.55 4.91 0.52 6-0.08 1.28-0.71 0.13-0.95-4.25-0.89l-6 0.07zm-175.27 40.15l-7.98 8.25c12.8-12.4 16.51-16.12 16.51-16.25-0.01-0.14-0.13-0.25-0.28-0.25-0.15 0-3.87 3.71-8.25 8.25zm5.49 4.26c-4.11 4.13-7.24 7.5-6.97 7.5 0.28 0 3.86-3.37 7.97-7.5 4.11-4.13 7.25-7.51 6.98-7.51-0.28 0-3.86 3.38-7.98 7.51zm16.97-2.12c-2.34 2.31-3.04 3.59-2.19 4 0.74 0.36 1.28-0.1 1.33-1.14 0.04-0.97 0.27-1.19 0.5-0.5 0.23 0.68 1.21 1.23 2.17 1.22 1.67-0.03 1.67-0.08 0-1-1.63-0.91-1.61-1.14 0.4-3.47 1.19-1.38 1.95-2.5 1.7-2.5-0.26 0-2.01 1.52-3.91 3.39zm-75.59 92.11c0 4.95 0.17 7.2 0.38 5 0.21-2.2 0.21-6.25 0.01-9-0.21-2.75-0.38-0.95-0.39 4zm12.02 24c0.01 6.05 0.17 8.3 0.37 5 0.2-3.3 0.2-8.25 0-11-0.21-2.75-0.37-0.05-0.37 6zm373.61 143.25l-9.48 9.75c15.12-14.73 19.51-19.12 19.51-19.25-0.01-0.14-0.13-0.25-0.28-0.25-0.15 0-4.54 4.38-9.75 9.75z"/>
		<path id="Path 12" class="s12" d="m257.43 69.25c-0.28 0.69-0.38 3.24-0.22 5.67 0.19 2.9 0.81 4.56 1.79 4.83 1.15 0.31 1.19 0.21 0.18-0.42-0.89-0.56-1.21-2.53-1-6.08 0.18-2.89 0.2-5.25 0.05-5.25-0.16 0-0.51 0.56-0.8 1.25zm-4.55 81.86c0.07 0.49 2.48 0.88 5.37 0.87 2.89 0 5.77-0.34 6.4-0.75 0.64-0.4-1.78-0.79-5.36-0.87-3.59-0.07-6.47 0.27-6.41 0.75zm-43.91 62.64l-6.47 6.75c10.48-10.07 13.51-13.11 13.51-13.25-0.01-0.14-0.14-0.25-0.29-0.25-0.15 0-3.19 3.04-6.75 6.75zm163.4 83.75c0 5.5 0.17 7.52 0.37 4.5 0.2-3.02 0.2-7.52-0.01-10-0.2-2.48-0.37 0-0.36 5.5zm-112.03 56.5c0 4.13 0.17 5.93 0.39 4 0.21-1.93 0.21-5.3 0-7.5-0.22-2.2-0.39-0.63-0.39 3.5zm-16.16 120.25l-0.18 5.75-8.5 0.65c6.84 0.28 8.71-0.14 9.04-0.9 0.3-0.69 0.38-3.5 0.18-6.25l-0.36-5z"/>
		<path id="Path 13" class="s13" d="m112.98 97.75l-9.48 9.75c15.12-14.72 19.51-19.11 19.51-19.25-0.01-0.14-0.13-0.25-0.28-0.25-0.15 0-4.54 4.39-9.75 9.75zm166.27 5.22c1.51 1.11 2.52 2.48 2.25 3.03-0.27 0.55-0.05 1 0.5 1 0.55 0 0.73-0.79 0.4-1.75-0.49-1.41-0.25-1.59 1.25-0.91 1.67 0.76 1.7 0.68 0.35-0.8-1.18-1.3-1.65-1.37-2.2-0.34-0.52 0.97-0.83 0.86-1.25-0.45-0.3-0.96-1.34-1.77-2.3-1.78-1.32-0.03-1.08 0.46 1 2zm-190.28 54.78l-6.47 6.75c10.48-10.07 13.51-13.11 13.51-13.25-0.01-0.14-0.14-0.25-0.29-0.25-0.15 0-3.19 3.04-6.75 6.75z"/>
		<path id="Path 14" class="s14" d="m270.14 96.64c-0.07 0.47-2.5 1-5.39 1.18-2.89 0.17-7.05 1.13-9.25 2.12-3.44 1.56-3.74 1.94-2.16 2.69 1.14 0.54 2.2 0.46 2.8-0.2 0.54-0.59 2.63-1.66 4.67-2.38 2.09-0.74 6.07-1.12 9.19-0.88 3.02 0.23 6.96 1.19 8.75 2.13 2.24 1.17 3.15 1.31 2.91 0.45-0.18-0.69-1.64-2.01-3.25-2.93-1.6-0.92-4.08-1.99-5.52-2.36-1.43-0.37-2.67-0.29-2.75 0.18zm4.3 40.61c-0.36 0.69-0.27 1.59 0.2 2.01 0.47 0.42 4.46 0.63 8.86 0.46l8-0.32c-16.04-0.29-16.86-0.49-15.72-1.86 0.7-0.84 0.84-1.54 0.3-1.54-0.54 0-1.28 0.56-1.64 1.25zm93.56 2.85c-1.92 1.15-5.19 3.74-7.25 5.75l-3.75 3.65c-5.81-5.58-8.62-7.95-10-8.86-1.37-0.91-2.95-1.66-3.5-1.66-0.55-0.01 1.02 1.28 3.5 2.86 2.48 1.59 5.63 4.08 7 5.54 1.38 1.47 2.84 2.66 3.25 2.65 0.41-0.02 2.15-1.57 3.87-3.46 1.72-1.89 5.43-4.6 8.25-6.01 2.82-1.42 4.46-2.58 3.63-2.57-0.82 0.01-3.07 0.96-5 2.11zm-21 10.53c1.93 0.86 4.85 2.63 6.5 3.93 1.65 1.31 3.45 2.41 4 2.44 0.55 0.04 1.9-0.96 3-2.22l2-2.28c-3.1 2.67-4.34 3.46-4.75 3.47-0.41 0.02-3-1.54-5.75-3.47-2.75-1.93-5.79-3.48-6.75-3.46-0.97 0.02-0.19 0.73 1.75 1.59zm38.68 1.62c1.75 1.24 3.96 3.6 4.92 5.25 0.95 1.65 2.05 5.25 2.44 8 0.65 4.55 0.72 4.66 0.84 1.25 0.06-2.06-0.55-5.32-1.38-7.25-0.82-1.93-2.96-4.85-4.75-6.51-1.79-1.65-3.7-3.01-4.25-3-0.55 0 0.43 1.02 2.18 2.26zm20.65 13.25c0 3.85 0.18 5.2 0.4 3 0.21-2.2 0.21-5.35-0.01-7-0.22-1.65-0.4 0.15-0.39 4zm-88 5c0 3.85 0.18 5.2 0.4 3 0.21-2.2 0.21-5.35-0.01-7-0.22-1.65-0.4 0.15-0.39 4zm80.94 16.75c-1.05 1.79-3.45 5.01-5.34 7.16-1.88 2.14-9.05 8.28-15.93 13.63-6.87 5.34-13.62 11.01-14.99 12.59-1.78 2.06-1.35 1.84 1.5-0.75 2.2-1.99 8.94-7.43 14.99-12.09 6.05-4.66 12.96-10.68 15.35-13.38 2.39-2.7 4.95-6.15 5.67-7.66 0.73-1.51 1.17-2.75 0.98-2.75-0.18 0-1.19 1.46-2.23 3.25zm-85.33 2.5c0.59 1.24 4.1 5.32 7.81 9.08 6.28 6.35 6.36 6.4 1.22 0.75-3.05-3.34-6.56-7.43-7.81-9.08q-2.25-2.97-1.22-0.75zm11.2 3.37c1.3 2.27 3.84 5.75 5.65 7.75 3.19 3.52 3.18 3.48-0.36-1.37-2.02-2.75-4.29-6.24-5.05-7.75-0.76-1.51-1.65-2.75-1.99-2.75-0.33 0 0.46 1.85 1.75 4.12zm39.19 7.13c-2.84 2.34-6.17 5.6-7.39 7.25-1.93 2.61-1.78 2.55 1.18-0.5 1.86-1.93 5.41-5.18 7.88-7.23 2.48-2.05 4.27-3.74 4-3.75-0.27-0.01-2.83 1.89-5.67 4.23zm-13.33 29c0 0.41 0.68 2.1 1.5 3.75 0.83 1.65 2.18 3 3 3 0.91 0 1.47-0.89 1.43-2.25-0.07-2.13-0.11-2.14-0.86-0.25-0.71 1.83-0.97 1.7-2.92-1.5-1.18-1.93-2.14-3.16-2.15-2.75zm-141.87 81c-0.07 2.06 0.49 4.99 1.25 6.5 0.76 1.51 2.19 3.43 3.19 4.25 1.17 0.97 0.95 0.31-0.63-1.84-1.34-1.84-2.72-5.44-3.06-8-0.59-4.46-0.62-4.5-0.75-0.91zm-17.63 2.95c1.1 0.62 4.03 2.9 6.5 5.06 2.48 2.17 5.4 4.37 6.5 4.89 1.1 0.53 0.66-0.08-0.98-1.34-1.64-1.27-4.9-4-7.25-6.06-2.35-2.06-4.83-3.74-5.52-3.72-0.69 0.02-0.35 0.54 0.75 1.17zm54.07 8.37c-1.61 0.82-2.85 1.7-2.75 1.96 0.1 0.26 1.53-0.21 3.18-1.03 1.65-0.82 3.23-1.5 3.5-1.5 0.28 0 0.51 0.34 0.52 0.75 0.01 0.41-1.83 3.23-4.08 6.25-2.26 3.02-4.97 7.19-6.02 9.25-1.06 2.06-1.69 3.75-1.42 3.75 0.28 0 1.36-1.69 2.42-3.75 1.05-2.06 3.76-6.23 6.02-9.25 2.25-3.02 4.09-6.06 4.08-6.75-0.01-0.69-0.58-1.23-1.27-1.21-0.69 0.02-2.57 0.71-4.18 1.53zm-38.4 46.18c-0.09 3.99 0.17 7.99 0.58 8.89 0.41 0.9 2.1 2.28 3.75 3.05 2.77 1.3 2.85 1.29 1-0.16-1.1-0.86-2.45-1.71-3-1.88-0.55-0.17-1.26-4.1-1.58-8.73l-0.58-8.42zm22.16 9.75c0 3.85 0.18 5.2 0.4 3 0.21-2.2 0.21-5.35-0.01-7-0.22-1.65-0.4 0.15-0.39 4z"/>
		<path id="Path 15" class="s15" d="m97.48 91.25l-7.98 8.25c12.8-12.4 16.51-16.11 16.51-16.25-0.01-0.14-0.13-0.25-0.28-0.25-0.15 0-3.87 3.71-8.25 8.25zm36.55 28.75c-0.95 1.85-0.78 1.95 2.22 1.38 1.79-0.34 4.82-1.01 6.75-1.48 2.79-0.69 2.33-0.77-2.25-0.38-3.64 0.3-5.58 0.11-5.29-0.52 0.26-0.55 0.27-1 0.03-1-0.24 0-0.9 0.9-1.46 2zm-24.53 36.47c-2.2 0.73-3.55 1.34-3 1.36 0.55 0.02 3.7-0.57 7-1.31 3.74-0.84 4.87-1.35 3-1.36-1.65 0-4.8 0.59-7 1.31z"/>
		<path id="Path 16" class="s16" d="m228.61 71c-0.34 1.65-1.06 2.78-1.61 2.5-0.55-0.28-0.44 0.41 0.25 1.51 0.81 1.31 1.38 1.57 1.61 0.75 0.26-0.93 0.59-0.86 1.23 0.24q0.87 1.47 0.89 0.25c0.01-0.69-0.43-1.47-0.98-1.75-0.55-0.28-0.76-1.85-0.47-3.5 0.29-1.65 0.34-3 0.1-3-0.23 0-0.69 1.35-1.02 3zm16.38 123.25c0 0.14 3.48 3.63 7.75 7.75l7.76 7.5c-11.16-12.01-14.65-15.5-14.95-15.5-0.3 0-0.55 0.11-0.56 0.25zm128.38 123.25c0 5.5 0.17 7.52 0.37 4.5 0.2-3.02 0.2-7.52-0.01-10-0.2-2.48-0.37 0-0.36 5.5zm36.62 5.7c-0.27 4.24-0.14 7.39 0.28 7 0.42-0.38 0.64-3.85 0.49-7.7l-0.28-7z"/>
		<path id="Path 17" class="s17" d="m232.8 157.75c-0.82 0.96-1.79 2.31-2.15 3-0.36 0.69 0.25 2.82 1.35 4.75 1.1 1.93 2.22 3.5 2.5 3.5 0.27 0-0.46-1.69-1.63-3.75l-2.12-3.75c3.24-4.26 4.04-5.5 3.86-5.5-0.17 0-0.99 0.79-1.81 1.75zm135.51 65.5c-2.17 2.34-4.49 5.38-5.15 6.75l-1.22 2.5c2.76-3.88 5.29-6.91 7.41-9.25 2.12-2.34 3.64-4.25 3.38-4.25-0.27 0-2.26 1.91-4.42 4.25zm-31.13 46c-0.11 2.96 0.29 4.98 1.07 5.36 0.69 0.34 2.15-0.43 3.25-1.71l2-2.33c-3.1 2.62-4.34 3.39-4.75 3.4-0.41 0.02-0.89-2.11-1.07-4.72l-0.32-4.75zm68.32 71.47c1.65 0.22 4.8 0.22 7 0.01 2.2-0.22 0.85-0.4-3-0.4-3.85-0.01-5.65 0.17-4 0.39z"/>
		<path id="Path 18" class="s18" d="m372.09 244c0.78 1.65 0.97 4.81 0.55 9.25-0.54 5.72-0.33 7.25 1.36 10 1.09 1.79 2.01 2.8 2.03 2.25 0.02-0.55 0.72 0.13 1.55 1.5l1.5 2.5c-1.01-3.88-2.34-6.13-3.6-7.5-2.06-2.24-2.24-3.22-1.8-9.5 0.39-5.54 0.15-7.42-1.15-9-1.58-1.93-1.6-1.91-0.44 0.5zm26.04 10.75c-1.17 0.96-4.15 5.8-6.63 10.75-2.48 4.95-4.28 9.11-4 9.25 0.27 0.14 2.51-4.05 4.96-9.31 3.29-7.05 5.19-9.92 7.25-10.96 1.53-0.77 2.28-1.42 1.66-1.44-0.62-0.02-2.08 0.75-3.24 1.71zm-62.01 14.75c-0.13 2.6 0.35 4.53 1.39 5.5 1.43 1.34 1.83 1.24 3.79-0.96l2.2-2.47c-3.76 3.25-4.86 3.58-5.46 2.93-0.5-0.55-1.09-2.8-1.31-5l-0.39-4z"/>
		<path id="Path 19" class="s0" d="m276 462.5c0 0.93 0.94 1.5 2.5 1.5 1.56 0 2.5-0.57 2.5-1.5 0-0.93-0.94-1.5-2.5-1.5-1.56 0-2.5 0.57-2.5 1.5z"/>
		<path id="Path 20" class="s15" d="m166 120.44c3.57 0.67 8.07 1.57 10 2.01 1.93 0.43 3.28 0.51 3 0.17-0.28-0.33-3.2-1.27-6.5-2.08-3.3-0.81-7.57-1.43-9.5-1.39-2.56 0.05-1.76 0.4 3 1.29z"/>
	</g>
</svg>